<?xml version="1.0" standalone="no"?>
<!DOCTYPE svg PUBLIC "-//W3C//DTD SVG 20010904//EN"
 "http://www.w3.org/TR/2001/REC-SVG-20010904/DTD/svg10.dtd">
<svg version="1.0" xmlns="http://www.w3.org/2000/svg"
 width="1024.000000pt" height="1024.000000pt" viewBox="0 0 1024.000000 1024.000000"
 preserveAspectRatio="xMidYMid meet">

<g transform="translate(0.000000,1024.000000) scale(0.100000,-0.100000)"
fill="#000000" stroke="none">
<path d="M4640 6285 l0 -1625 125 0 125 0 2 1048 c1 576 3 1017 5 981 l4 -66
87 15 c109 19 368 21 517 4 291 -33 415 -63 415 -99 0 -6 -20 -26 -45 -43 -53
-36 -60 -73 -21 -102 25 -18 133 -63 221 -92 60 -19 105 -58 105 -90 0 -13
-13 -40 -30 -61 -31 -39 -40 -70 -17 -63 23 8 56 69 66 126 23 124 44 208 59
237 8 16 20 56 27 90 12 58 36 101 153 284 37 57 72 140 72 169 0 75 -62 158
-168 224 -98 63 -115 123 -52 183 60 57 30 127 -109 257 -129 122 -244 169
-526 214 -69 11 -168 17 -315 17 -207 0 -243 -3 -417 -39 -32 -6 -33 -5 -33
25 l0 31 -125 0 -125 0 0 -1625z m257 503 c-3 -7 -5 -2 -5 12 0 14 2 19 5 13
2 -7 2 -19 0 -25z"/>
<path d="M5040 6472 l0 -97 83 -51 c170 -106 639 -345 840 -429 402 -166 777
-377 993 -558 143 -121 259 -267 325 -412 94 -207 110 -473 43 -688 -14 -43
-23 -81 -20 -84 7 -7 47 83 74 167 30 91 52 220 52 300 0 185 -77 409 -194
567 -135 181 -326 334 -681 545 -85 51 -364 189 -481 239 -138 58 -637 313
-764 389 -161 97 -212 138 -231 188 -5 12 -15 22 -24 22 -12 0 -15 -17 -15
-98z"/>
<path d="M4457 6494 c-59 -30 -235 -102 -390 -161 -673 -253 -895 -367 -1098
-565 -337 -329 -524 -843 -546 -1500 l-6 -188 1236 0 1237 0 0 255 0 255 -160
0 -160 0 -2 979 -3 979 -108 -54z m-399 -1341 l-3 -558 -528 -3 -527 -2 6 27
c106 467 229 656 561 862 122 75 442 229 481 231 10 0 12 -115 10 -557z"/>
<path d="M5271 5588 c-67 -179 -201 -551 -201 -559 0 -5 6 -9 14 -9 13 0 38
56 91 208 l19 53 104 -3 104 -3 47 -125 c39 -106 62 -144 73 -120 2 3 -44 134
-101 293 -86 240 -106 287 -122 287 -11 0 -23 -10 -28 -22z m74 -153 c21 -58
35 -108 32 -111 -2 -3 -40 -4 -84 -2 l-80 3 40 112 c21 62 43 111 47 108 4 -2
24 -52 45 -110z"/>
<path d="M6326 5405 c-80 -28 -126 -98 -126 -191 0 -114 86 -200 200 -198 60
1 90 13 133 52 l27 26 0 -37 c0 -26 4 -37 15 -37 13 0 15 27 15 185 0 158 -2
185 -15 185 -9 0 -15 -9 -15 -25 l0 -25 -21 21 c-30 30 -98 59 -139 58 -19 0
-52 -6 -74 -14z m155 -48 c104 -70 108 -206 7 -280 -40 -30 -116 -34 -165 -8
-112 56 -119 218 -14 288 47 32 125 32 172 0z"/>
<path d="M5645 5390 c-23 -12 -41 -16 -43 -10 -2 5 -10 10 -18 10 -12 0 -14
-32 -14 -185 0 -158 2 -185 15 -185 13 0 15 22 15 136 0 80 5 144 11 157 33
64 116 77 171 28 l33 -29 5 -143 c4 -101 9 -144 18 -147 9 -3 12 30 12 143 0
171 -8 196 -73 226 -54 24 -83 24 -132 -1z"/>
<path d="M6004 5400 c-29 -12 -54 -49 -54 -80 0 -36 23 -65 85 -105 59 -37 75
-68 59 -114 -19 -54 -106 -53 -132 2 -14 28 -26 34 -37 17 -11 -19 26 -72 62
-86 45 -19 83 -11 118 26 51 54 33 133 -40 176 -23 13 -52 35 -65 49 -23 24
-24 28 -9 53 21 38 61 41 88 6 16 -20 25 -24 33 -16 15 15 -15 60 -48 72 -29
12 -32 12 -60 0z"/>
<path d="M6670 5205 c0 -158 2 -185 15 -185 12 0 15 20 15 116 0 66 5 125 11
137 17 32 61 77 76 77 13 0 18 22 7 33 -10 9 -61 -20 -78 -45 -16 -22 -16 -22
-16 15 0 26 -4 37 -15 37 -13 0 -15 -27 -15 -185z"/>
<path d="M5060 4515 c0 -337 0 -345 20 -345 18 0 20 8 22 163 l3 162 172 3
173 2 2 -162 c3 -146 5 -163 21 -166 16 -3 17 18 17 343 0 325 -1 346 -17 343
-16 -3 -18 -20 -21 -166 l-2 -162 -173 2 -172 3 -3 163 c-2 154 -4 162 -22
162 -20 0 -20 -8 -20 -345z"/>
<path d="M6830 4515 c0 -338 0 -345 20 -345 19 0 20 7 20 173 0 167 1 174 23
194 51 47 100 55 156 25 61 -33 71 -66 71 -239 0 -148 1 -153 21 -153 20 0 21
3 17 168 -3 156 -5 170 -27 206 -44 70 -140 95 -216 56 -22 -11 -41 -20 -42
-20 -2 0 -3 63 -3 140 0 133 -1 140 -20 140 -20 0 -20 -7 -20 -345z"/>
<path d="M6000 4720 c-15 -28 4 -52 39 -48 22 2 26 8 26 33 0 25 -4 31 -27 33
-19 2 -30 -3 -38 -18z"/>
<path d="M6141 4726 c-19 -22 -4 -56 23 -56 32 0 53 26 39 48 -14 23 -47 27
-62 8z"/>
<path d="M6424 4616 c-47 -21 -105 -77 -125 -121 -24 -53 -24 -147 0 -201 22
-49 92 -111 140 -124 85 -23 180 -1 236 54 l25 25 0 -39 c0 -33 3 -40 20 -40
19 0 20 7 20 210 0 203 -1 210 -20 210 -15 0 -20 -7 -20 -25 l0 -24 -25 25
c-58 58 -178 82 -251 50z m173 -47 c68 -33 97 -78 101 -160 4 -60 1 -74 -22
-113 -62 -106 -198 -126 -293 -43 -20 18 -42 46 -49 64 -18 42 -18 115 0 156
15 38 88 104 120 110 53 10 103 6 143 -14z"/>
<path d="M5580 4438 c0 -140 2 -156 23 -192 44 -78 168 -104 246 -53 62 41 71
73 71 246 0 144 -1 151 -20 151 -19 0 -20 -7 -20 -145 0 -108 -4 -153 -14
-174 -44 -85 -180 -85 -230 -1 -13 23 -16 57 -16 174 0 139 -1 146 -20 146
-19 0 -20 -7 -20 -152z"/>
<path d="M6010 4366 l0 -225 -25 -19 c-14 -11 -25 -25 -25 -31 0 -20 40 -12
65 14 l25 24 0 231 c0 223 -1 230 -20 230 -19 0 -20 -7 -20 -224z"/>
<path d="M6150 4365 l0 -225 -25 -16 c-42 -28 -28 -56 20 -38 39 15 45 54 45
284 0 213 -1 220 -20 220 -19 0 -20 -7 -20 -225z"/>
</g>
</svg>
